<svg width="40" height="40" viewBox="0 0 40 40" fill="none" xmlns="http://www.w3.org/2000/svg">
<path d="M20 40C31.0457 40 40 31.0457 40 20C40 8.95431 31.0457 0 20 0C8.95431 0 0 8.95431 0 20C0 31.0457 8.95431 40 20 40Z" fill="#73F010"/>
<path d="M23.5716 18.5716H21.4287V14.2859H25.7144C26.0933 14.2859 26.4567 14.1354 26.7246 13.8675C26.9925 13.5996 27.143 13.2362 27.143 12.8574C27.143 12.4785 26.9925 12.1151 26.7246 11.8472C26.4567 11.5793 26.0933 11.4288 25.7144 11.4288H21.4287V8.57164C21.4287 8.19276 21.2782 7.82939 21.0103 7.56149C20.7424 7.29358 20.379 7.14307 20.0001 7.14307C19.6213 7.14307 19.2579 7.29358 18.99 7.56149C18.7221 7.82939 18.5716 8.19276 18.5716 8.57164V11.4288H16.4287C15.1026 11.4288 13.8309 11.9556 12.8932 12.8932C11.9555 13.8309 11.4287 15.1027 11.4287 16.4288C11.4287 17.7549 11.9555 19.0266 12.8932 19.9643C13.8309 20.902 15.1026 21.4288 16.4287 21.4288H18.5716V25.7145H14.2859C13.907 25.7145 13.5436 25.865 13.2757 26.1329C13.0078 26.4008 12.8573 26.7642 12.8573 27.1431C12.8573 27.5219 13.0078 27.8853 13.2757 28.1532C13.5436 28.4211 13.907 28.5716 14.2859 28.5716H18.5716V31.4288C18.5716 31.8077 18.7221 32.171 18.99 32.4389C19.2579 32.7068 19.6213 32.8574 20.0001 32.8574C20.379 32.8574 20.7424 32.7068 21.0103 32.4389C21.2782 32.171 21.4287 31.8077 21.4287 31.4288V28.5716H23.5716C24.8976 28.5716 26.1694 28.0449 27.1071 27.1072C28.0448 26.1695 28.5716 24.8977 28.5716 23.5716C28.5716 22.2456 28.0448 20.9738 27.1071 20.0361C26.1694 19.0984 24.8976 18.5716 23.5716 18.5716ZM16.4287 18.5716C15.8604 18.5716 15.3153 18.3459 14.9135 17.944C14.5116 17.5421 14.2859 16.9971 14.2859 16.4288C14.2859 15.8605 14.5116 15.3154 14.9135 14.9136C15.3153 14.5117 15.8604 14.2859 16.4287 14.2859H18.5716V18.5716H16.4287ZM23.5716 25.7145H21.4287V21.4288H23.5716C24.1399 21.4288 24.6849 21.6545 25.0868 22.0564C25.4887 22.4583 25.7144 23.0033 25.7144 23.5716C25.7144 24.14 25.4887 24.685 25.0868 25.0869C24.6849 25.4887 24.1399 25.7145 23.5716 25.7145Z" fill="#50B600"/>
</svg>
