<svg width="40" height="40" viewBox="0 0 40 40" fill="none" xmlns="http://www.w3.org/2000/svg">
<path d="M20.0781 0C9.08609 0 0 8.92969 0 19.9219C0 30.9141 9.08609 40 20.0781 40C31.0702 40 40 30.9141 40 19.9219C40 8.92969 31.0702 0 20.0781 0Z" fill="#3BE9E9"/>
<path d="M27.1094 26.6408C25.1639 28.8909 22.5391 29.7581 20.0781 29.3597C17.3361 28.9143 14.6719 26.9455 13.4766 23.594H11.7188C10.1721 23.594 10.1721 21.2502 11.7188 21.2502H12.9845C12.8672 20.0314 12.8672 19.969 12.9845 18.7502H11.7188C11.0624 18.7502 10.5469 18.2347 10.5469 17.5783C10.5469 16.922 11.0624 16.4065 11.7188 16.4065H13.4766C14.6719 13.0315 17.3827 11.1565 20.0781 10.7347C22.6095 10.3361 25.2812 11.2268 27.1094 13.3597C28.117 14.5315 26.3592 16.0549 25.3281 14.883C23.9686 13.2893 21.9533 12.6331 20.0781 13.1019C18.5546 13.4533 16.9687 14.508 16.0546 16.4065H21.25C22.7966 16.4065 22.7966 18.7502 21.25 18.7502H15.3282C15.2109 19.6878 15.2109 20.3126 15.3282 21.2502H21.25C22.7966 21.2502 22.7966 23.594 21.25 23.594H16.0546C16.9687 25.469 18.5546 26.5471 20.0781 26.8986C21.9532 27.3673 23.9685 26.7111 25.3281 25.1175C26.3592 23.9456 28.117 25.469 27.1094 26.6408Z" fill="#32A2E1"/>
</svg>
