<svg width="26" height="26" viewBox="0 0 26 26" fill="none" xmlns="http://www.w3.org/2000/svg">
<path d="M3.5315 17.105C1.32366 19.3129 0.7774 24.247 0.755246 24.4559C0.732326 24.6715 0.80812 24.8859 0.961431 25.0391C1.11474 25.1925 1.32906 25.2682 1.54468 25.2453C1.75364 25.2232 6.68769 24.6769 8.89558 22.469C10.3745 20.9902 10.3745 18.5838 8.89558 17.1049C7.41673 15.6261 5.01036 15.6261 3.5315 17.105Z" fill="#D2CAE0"/>
<path d="M1.46861 12.1798H4.81715C4.61853 11.6215 4.657 10.9932 4.95429 10.4412C6.16437 8.19385 7.74366 6.22539 9.59411 4.59399H4.92816C4.66886 4.59399 4.42971 4.73386 4.30262 4.95986L0.843065 11.1102C0.571851 11.5785 0.927616 12.1865 1.46861 12.1798Z" fill="#D2CAE0"/>
<path d="M15.5595 21.0455C15.0075 21.3428 14.3791 21.3813 13.8209 21.1827V24.5312C13.8142 25.0724 14.4223 25.4279 14.8905 25.1568L21.0408 21.6972C21.2668 21.5701 21.4067 21.331 21.4067 21.0717V16.4058C19.7753 18.2562 17.8068 19.8355 15.5595 21.0455Z" fill="#D2CAE0"/>
<path d="M16.0759 8.33569C15.1999 8.33569 14.4873 9.04837 14.4873 9.92431C14.5672 12.0289 17.585 12.0283 17.6645 9.92431C17.6645 9.04837 16.9519 8.33569 16.0759 8.33569Z" fill="#D2CAE0"/>
<path d="M24.5324 0.75H23.5826C16.3167 0.75 9.66314 4.72423 6.21827 11.1217C6.06798 11.4008 6.11855 11.7454 6.34273 11.9695L14.0306 19.6575C14.1938 19.8206 14.5317 19.9687 14.8789 19.7819C21.2761 16.3369 25.2502 9.68336 25.2502 2.41762V1.46775C25.2502 1.07136 24.9288 0.75 24.5324 0.75ZM16.0757 12.9485C14.4082 12.9485 13.0516 11.592 13.0516 9.92443C13.2036 5.91804 18.9484 5.91909 19.0998 9.92447C19.0998 11.5919 17.7432 12.9485 16.0757 12.9485Z" fill="#D2CAE0"/>
</svg>
