<svg width="138" height="32" viewBox="0 0 138 32" fill="none" xmlns="http://www.w3.org/2000/svg">
<path d="M18.32 6.24V1.664H0.624001V24H18.32V19.424H6.096V14.848H18.064V10.528H6.096V6.24H18.32Z" fill="black"/>
<path d="M34.647 6.272C31.479 6.272 29.047 7.136 27.479 9.12L27.351 6.944H22.999V24H28.087V14.592C28.087 11.904 29.463 10.368 32.983 10.368C36.151 10.368 37.655 11.616 37.655 14.752V24H42.743V14.272C42.743 8.736 40.183 6.272 34.647 6.272Z" fill="black"/>
<path d="M47.647 2.528C47.647 4.256 48.703 5.056 50.559 5.056C52.415 5.056 53.471 4.256 53.471 2.528C53.471 0.832001 52.415 0 50.559 0C48.703 0 47.647 0.832001 47.647 2.528ZM47.999 24H53.087V6.944H47.999V24Z" fill="black"/>
<path d="M73.7988 6.944L73.7028 8.704C72.1348 7.136 69.7988 6.24 66.7588 6.24C60.8387 6.24 57.1588 8.8 57.1588 15.2C57.1588 21.6 60.8387 24.192 66.7588 24.192C69.4147 24.192 71.5267 23.488 73.0628 22.272V22.88C73.0628 26.304 71.6547 27.744 67.7188 27.744C65.0307 27.744 63.4628 27.072 62.6308 25.472H57.4468C58.7588 29.664 61.7347 31.36 67.7507 31.36C75.6227 31.36 78.0868 28.352 78.0868 21.6V6.944H73.7988ZM67.7507 20.224C64.1987 20.224 62.2148 18.72 62.2148 15.2C62.2148 11.68 64.1987 10.304 67.7507 10.304C71.7188 10.304 73.3187 12.288 73.3187 15.2C73.3187 18.112 71.6867 20.224 67.7507 20.224Z" fill="black"/>
<path d="M106.767 6.304C103.471 6.304 101.327 7.456 99.9827 9.152C98.9268 7.104 96.7828 6.304 94.1268 6.304C91.0228 6.304 89.1348 7.392 87.8548 8.96L87.6628 6.944H83.3428V24H88.4307V14.24C88.4307 11.712 89.5508 10.368 92.3347 10.368C94.8627 10.368 95.9827 11.36 95.9827 14.24V24H101.071V14.24C101.071 11.744 102.127 10.368 104.975 10.368C107.503 10.368 108.591 11.36 108.591 14.24V24H113.679V13.216C113.679 8 110.767 6.304 106.767 6.304Z" fill="black"/>
<path d="M127.8 6.272C122.648 6.272 119.288 8.064 118.201 11.872H123.064C123.545 10.528 125.241 9.856 127.737 9.856C130.809 9.856 132.185 10.88 132.216 13.28H126.489C122.169 13.28 117.977 14.112 117.977 18.784C117.977 22.912 120.984 24.64 125.496 24.64C128.344 24.64 131.065 23.744 132.569 21.952L132.888 24H137.049V14.016C137.049 8.064 133.496 6.272 127.8 6.272ZM126.681 21.28C124.345 21.28 123.033 20.448 123.033 18.72C123.033 16.736 124.632 16.256 127.641 16.256H132.216V17.056C132.216 20.352 129.305 21.28 126.681 21.28Z" fill="black"/>
</svg>
