<svg width="36" height="36" viewBox="0 0 36 36" fill="none" xmlns="http://www.w3.org/2000/svg">
<path d="M18 36C27.9411 36 36 27.9411 36 18C36 8.05887 27.9411 0 18 0C8.05887 0 0 8.05887 0 18C0 27.9411 8.05887 36 18 36Z" fill="#FFCA2B"/>
<path d="M19.9284 19.2858C21.4629 19.2858 22.9345 18.6762 24.0195 17.5912C25.1046 16.5062 25.7141 15.0345 25.7141 13.5001C25.7141 11.9656 25.1046 10.494 24.0195 9.40895C22.9345 8.32392 21.4629 7.71436 19.9284 7.71436H15.4284C15.0874 7.71436 14.7604 7.84981 14.5193 8.09093C14.2782 8.33205 14.1427 8.65908 14.1427 9.00007V16.7144H12.857C12.516 16.7144 12.189 16.8498 11.9479 17.0909C11.7067 17.3321 11.5713 17.6591 11.5713 18.0001C11.5713 18.3411 11.7067 18.6681 11.9479 18.9092C12.189 19.1503 12.516 19.2858 12.857 19.2858H14.1427V21.8572H12.857C12.516 21.8572 12.189 21.9927 11.9479 22.2338C11.7067 22.4749 11.5713 22.8019 11.5713 23.1429C11.5713 23.4839 11.7067 23.8109 11.9479 24.0521C12.189 24.2932 12.516 24.4286 12.857 24.4286H14.1427V28.2858C14.1427 28.6268 14.2782 28.9538 14.5193 29.1949C14.7604 29.436 15.0874 29.5715 15.4284 29.5715C15.7694 29.5715 16.0965 29.436 16.3376 29.1949C16.5787 28.9538 16.7141 28.6268 16.7141 28.2858V24.4286H20.5713C20.9123 24.4286 21.2393 24.2932 21.4804 24.0521C21.7215 23.8109 21.857 23.4839 21.857 23.1429C21.857 22.8019 21.7215 22.4749 21.4804 22.2338C21.2393 21.9927 20.9123 21.8572 20.5713 21.8572H16.7141V19.2858H19.9284ZM16.7141 11.5715V10.2858H19.9284C20.7809 10.2858 21.5985 10.6244 22.2013 11.2272C22.8041 11.83 23.1427 12.6476 23.1427 13.5001C23.1427 14.3526 22.8041 15.1701 22.2013 15.7729C21.5985 16.3757 20.7809 16.7144 19.9284 16.7144H16.7141V11.5715Z" fill="#E88717"/>
</svg>
