<svg width="30" height="33" viewBox="0 0 30 33" fill="none" xmlns="http://www.w3.org/2000/svg">
<path fill-rule="evenodd" clip-rule="evenodd" d="M5.70445 13.9604C5.34706 14.2846 4.80193 14.2846 4.44454 13.9604L1.22597 11.0403C1.18481 11.2704 1.16333 11.5073 1.16333 11.7493V22.28C1.16333 24.4891 2.95419 26.28 5.16333 26.28H20.5439V20.1567C20.5439 19.3801 21.1735 18.7505 21.9502 18.7505H26.6378C26.8671 18.7505 27.0836 18.8053 27.2748 18.9027V11.7493C27.2748 9.54013 25.484 7.74927 23.2748 7.74927H12.1104C12.1087 7.99129 12.0129 8.23695 11.801 8.4292L5.70445 13.9604ZM3.68992 20.4792C3.68992 19.9615 4.10966 19.5417 4.62744 19.5417H15.387C15.9048 19.5417 16.3245 19.9615 16.3245 20.4792V22.8157C16.3245 23.3335 15.9048 23.7533 15.387 23.7533H4.62744C4.10966 23.7533 3.68992 23.3335 3.68992 22.8157V20.4792ZM19.7891 11.1189C19.2713 11.1189 18.8515 11.5386 18.8515 12.0564V12.7083C18.8515 13.226 19.2713 13.6458 19.7891 13.6458H24.6525C25.1702 13.6458 25.59 13.226 25.59 12.7083V12.0564C25.59 11.5386 25.1702 11.1189 24.6525 11.1189H19.7891Z" fill="#D2CAE0"/>
<path d="M2.26196 0.937524C2.26196 0.419744 2.68171 0 3.19949 0H6.48082C6.9986 0 7.41834 0.419744 7.41834 0.937524V7.96895C7.41834 8.48673 6.9986 8.90648 6.48082 8.90648H3.19949C2.68171 8.90648 2.26196 8.48673 2.26196 7.96895V0.937524Z" fill="#D2CAE0"/>
<path d="M5.56652 13.1107C5.29302 13.3792 4.85494 13.3792 4.58145 13.1107L0.212267 8.82239C-0.237068 8.38137 0.0751942 7.61743 0.704798 7.61743H9.44317C10.0728 7.61743 10.385 8.38137 9.9357 8.82239L5.56652 13.1107Z" fill="#D2CAE0"/>
<path d="M21.481 20.6255C21.481 20.1077 21.9007 19.688 22.4185 19.688H25.6998C26.2176 19.688 26.6373 20.1077 26.6373 20.6255V27.6569C26.6373 28.1747 26.2176 28.5945 25.6998 28.5945H22.4185C21.9007 28.5945 21.481 28.1747 21.481 27.6569V20.6255Z" fill="#D2CAE0"/>
<path d="M24.786 32.7985C24.5125 33.0669 24.0744 33.0669 23.8009 32.7985L19.4317 28.5101C18.9824 28.0691 19.2947 27.3052 19.9243 27.3052H28.6627C29.2923 27.3052 29.6045 28.0691 29.1552 28.5101L24.786 32.7985Z" fill="#D2CAE0"/>
</svg>
